<svg height="512" viewBox="0 0 512 512" width="512" xmlns="http://www.w3.org/2000/svg"><g id="Rubber_Duck_Doll" data-name="Rubber Duck Doll"><g id="Flat"><path d="m512 208v99c0 95.39-77.61 173-173 173h-197.56a125.445 125.445 0 0 1 -42.47-243.48l1.38-.49a124.511 124.511 0 0 1 -20.35-68.03c0-74.99 68.19-136 152-136 40.31 0 74.91 13.81 100.05 39.94 23.78 24.71 36.88 58.83 36.88 96.06 0 26.99-10.41 50.31-18.22 64h89.29c42.07 0 56.29-26.5 56.87-27.63a7.993 7.993 0 0 1 15.13 3.63z" fill="#ffd740"/><path d="m505.851 200.189a7.969 7.969 0 0 0 -8.981 4.183c-.585 1.128-14.796 27.628-56.87 27.628h-34.579c-51.533 122.213-172.457 208-313.421 208a343.038 343.038 0 0 1 -44.994-2.968 125.185 125.185 0 0 0 94.438 42.968h197.556c95.393 0 173-77.607 173-173v-99a8.016 8.016 0 0 0 -6.149-7.811z" fill="#ffc400"/><path d="m78.271 221.355c-24.7 0-42.057-9-53.316-18.146a84.222 84.222 0 0 1 -24.446-32.4 8 8 0 0 1 7.491-10.809c.3 0 32.093-.291 66.45-17.246a37.1 37.1 0 0 1 53.5 31.253l15.207 30.415a8 8 0 0 1 -7.157 11.578h-22.841a124.48 124.48 0 0 1 -34.888 5.355z" fill="#ff9e80"/><circle cx="168" cy="128" fill="#525252" r="24"/><path d="m216 424h-12a76 76 0 0 1 0-152h148a8 8 0 0 1 8 8c0 79.4-64.6 144-144 144z" fill="#ffc400"/><path d="m352 272h-56.24a136 136 0 0 1 -135.76 128c-3.992 0-7.941-.182-11.845-.519a75.8 75.8 0 0 0 55.845 24.519h12c79.4 0 144-64.6 144-144a8 8 0 0 0 -8-8z" fill="#f2b200"/><g fill="#ffd740"><path d="m356.42 312a142.771 142.771 0 0 1 -4.65 16h-119.77a8 8 0 0 1 0-16z"/><path d="m344.98 344a142.788 142.788 0 0 1 -9.3 16h-103.68a8 8 0 0 1 0-16z"/><path d="m323.25 376a147.108 147.108 0 0 1 -16.83 16h-74.42a8 8 0 0 1 0-16z"/></g><path d="m512.02 255.5a2.771 2.771 0 0 0 -.02.37v21.57c-10.42 5.84-27.62 10.56-56 10.56a8 8 0 0 1 0-16c43.66 0 55.18-11.72 56-16.39.01-.04.01-.07.02-.11z" fill="#f2b200"/><circle cx="176" cy="120" fill="#fff" r="8"/><path d="m143.155 204.422-15.207-30.415a36.819 36.819 0 0 0 -17.039-29.226 76.007 76.007 0 0 1 -74.909 63.219c-1.585 0-3.154-.064-4.715-.16 11.092 7.327 26.506 13.515 46.986 13.515a124.48 124.48 0 0 0 34.888-5.355h22.841a8 8 0 0 0 7.155-11.578z" fill="#ff8b6c"/><circle cx="252" cy="92" fill="#ffe7a4" r="28"/><circle cx="296" cy="136" fill="#ffe7a4" r="16"/><circle cx="44" cy="180" fill="#ffbdab" r="12"/></g></g></svg>